<svg xmlns="http://www.w3.org/2000/svg" xml:space="preserve" width="513.046" height="512.594" viewBox="0 0 135.743 135.624"><g style="display:inline"><path d="M36.934 80.62h135.624v135.624H36.934z" style="fill:#0f0f58;fill-opacity:1;fill-rule:evenodd;stroke-width:.264583" transform="translate(-36.934 -80.62)"/><path d="M92.189 142.139c11.092-7.984 19.128-14.572 25.773-17.017 11.238-4.134 23.274-.42 24.822-.534 2.188-.16 3.427.713 2.135 2.296-1.655 2.028-2.776 3.95-4.057 6.245-1.281 2.296-2.192 3.895-3.096 6.032-.503 1.19-2.455.8-2.562-.427-.107-1.228-.658-1.935-2.562-2.616-1.416-.506-8.01-2.077-14.108 3.247-.145.127-.247.42-.066.654 1.998 2.579 13.685 17.67 17.537 22.79 4.217 5.604 5.877 8.53 8.288 9.888.61.343.564 1.789-.511 1.695-1.652-.143-13.902-1.157-28.649 0-3.494.274-2.875-2.328-1.863-2.753 1.299-.547 1.46-.963 1.33-1.357-.313-.937-6.328-10.974-12.342-18.885-.268-.353-.754-.432-1.069-.162-3.877 3.335-8.557 6.603-9.483 7.387-.117.098-.392.302-.479.496-.086.195-.11.342.003.932.33 1.727 1.134 5.638 2.338 9.698.554 1.869 1.414 1.455 1.975 2.402.588.992-.02 1.796-1.762 1.655-2.08-.17-14.786-.323-25.675 1.014-2.369.29-2.07-2.134-1.175-2.723 1.328-.872 3.577-2.295 3.31-5.284-.267-2.99-1.433-20.76-2.135-30.8-.522-7.465-.32-6.555-3.363-8.328-1.508-.878-1.247-2.97.373-2.935 4.148.089 8.903.166 15.587-.107 7.847-.32 11.264-1.195 13.185-1.121 1.388.053 2.135 1.548.427 2.562-1.624.964-2.189 5.285-2.669 9.342-.372 3.141-.028 5.605.104 6.562.016.113.147.362.439.152z" style="fill:#f2c836;fill-opacity:1;stroke:#000;stroke-width:.517525;stroke-linecap:butt;stroke-linejoin:miter;stroke-dasharray:none;stroke-opacity:1" transform="translate(-36.934 -80.62)"/></g></svg>