<?xml version="1.0" encoding="UTF-8" standalone="no"?>
<!-- Created with Inkscape (http://www.inkscape.org/) -->

<svg
   width="135.74338mm"
   height="135.62381mm"
   viewBox="0 0 135.74338 135.62381"
   version="1.1"
   id="svg1"
   xml:space="preserve"
   inkscape:export-filename="icon.svg"
   inkscape:export-xdpi="96"
   inkscape:export-ydpi="96"
   xmlns:inkscape="http://www.inkscape.org/namespaces/inkscape"
   xmlns:sodipodi="http://sodipodi.sourceforge.net/DTD/sodipodi-0.dtd"
   xmlns="http://www.w3.org/2000/svg"
   xmlns:svg="http://www.w3.org/2000/svg"><sodipodi:namedview
     id="namedview1"
     pagecolor="#ffffff"
     bordercolor="#666666"
     borderopacity="1.0"
     inkscape:showpageshadow="2"
     inkscape:pageopacity="0.0"
     inkscape:pagecheckerboard="0"
     inkscape:deskcolor="#d1d1d1"
     inkscape:document-units="mm" /><defs
     id="defs1" /><g
     inkscape:groupmode="layer"
     id="layer2"
     inkscape:label="Layer 2"
     style="display:inline"
     transform="translate(-36.934155,-80.619713)"><rect
       style="fill:#0f0f58;fill-opacity:1;fill-rule:evenodd;stroke-width:0.264583"
       id="rect1"
       width="135.62381"
       height="135.62381"
       x="36.934155"
       y="80.619713" /><path
       style="fill:#f2c836;fill-opacity:1;stroke:#000000;stroke-width:0.765;stroke-linecap:butt;stroke-linejoin:miter;stroke-dasharray:none;stroke-opacity:1"
       d="m 86.256777,138.85644 c 16.396493,-11.80224 28.275843,-21.53975 38.098163,-25.15373 16.61144,-6.11193 34.40344,-0.62168 36.69102,-0.78906 3.23513,-0.23672 5.06532,1.05274 3.15622,3.39294 -2.44607,2.9984 -4.10309,5.839 -5.99682,9.23193 -1.89373,3.39294 -3.24111,5.75755 -4.57651,8.91631 -0.744,1.75987 -3.62965,1.18358 -3.78746,-0.63124 -0.15781,-1.81483 -0.97305,-2.85987 -3.78746,-3.86637 -2.09217,-0.74821 -11.84104,-3.07156 -20.85356,4.79918 -0.21449,0.18731 -0.36581,0.6202 -0.0979,0.96598 2.95407,3.81274 20.22965,26.12108 25.92251,33.68756 6.23352,8.28507 8.68742,12.60923 12.25183,14.61663 0.90155,0.50773 0.8336,2.64452 -0.75579,2.50663 -2.44199,-0.21185 -20.54921,-1.71069 -42.34806,-7.9e-4 -5.16537,0.40517 -4.24991,-3.44062 -2.75462,-4.06951 1.92023,-0.80762 2.16009,-1.42265 1.96557,-2.0062 -0.46124,-1.38373 -9.35276,-16.2209 -18.24325,-27.91548 -0.39614,-0.52108 -1.11489,-0.63841 -1.579139,-0.23907 -5.731217,4.92996 -12.650213,9.76045 -14.019016,10.91881 -0.172792,0.14623 -0.578577,0.44749 -0.706855,0.73454 -0.128278,0.28705 -0.163416,0.50546 0.0035,1.37687 0.489253,2.55352 1.677024,8.33493 3.455978,14.33527 0.819044,2.7626 2.09041,2.15122 2.9195,3.55074 0.868781,1.46652 -0.02872,2.65489 -2.603879,2.44607 -3.076304,-0.24946 -21.857473,-0.47686 -37.953506,1.4992 -3.500592,0.42976 -3.060209,-3.15444 -1.735919,-4.02417 1.962813,-1.28908 5.286662,-3.39293 4.892135,-7.81164 -0.394527,-4.4187 -2.118181,-30.68562 -3.156217,-45.52843 -0.771638,-11.03361 -0.47204,-9.68898 -4.971041,-12.30924 -2.229322,-1.29838 -1.842221,-4.39131 0.552338,-4.3398 6.131152,0.13188 13.1599,0.24548 23.040383,-0.15781 11.599096,-0.47343 16.650047,-1.76622 19.489638,-1.65702 2.051541,0.0789 3.156218,2.28827 0.631244,3.78747 -2.400679,1.4254 -3.235121,7.81163 -3.945271,13.80845 -0.549981,4.64428 -0.04206,8.28536 0.154338,9.70088 0.02316,0.16692 0.21589,0.53506 0.647906,0.2241 z"
       id="path1"
       sodipodi:nodetypes="ssssssssssssssssssszssssssssssssssss" /></g></svg>
