<svg xmlns="http://www.w3.org/2000/svg" width="682.667" height="682.667" version="1.0" viewBox="0 0 512 512"><path d="M0 256v256h512V0H0v256zm422.5-140.5c9.9.8 22.7 2.4 28.5 3.5 5.8 1 14.2 2.1 18.6 2.4 14.7.8 16.2 3.9 7.6 15.9-6.8 9.5-11.6 16.8-15.3 23.4-5.9 10.7-13.7 25.1-18.1 33.5-4.8 9.2-7.9 12.8-11.2 12.8-3.2 0-6.6-4.3-6.6-8.4 0-1.7-.6-4.1-1.4-5.2-2-2.8-12-7.2-20.8-9-8.9-1.9-28.4-1.4-37.3 1-10 2.7-26 11-31.3 16.3-.7.7-1.7 1.3-2.2 1.3-1.3 0-2.4 4.1-1.3 4.9.5.3 16.4 20.8 35.3 45.6 18.9 24.7 35.4 46.3 36.8 48 1.3 1.6 5.3 6.8 8.9 11.5 3.5 4.7 9 11.9 12.2 16 37.8 49.2 42.6 55.3 46.7 58.1 10.2 7 9.1 12.2-2.6 12.3-1.9 0-12.7-.5-23.9-1.3-27.9-1.7-84-1.6-114.1.3-13.5.9-25 1.6-25.6 1.6-2.3 0-6.4-4.9-6.4-7.7.1-3.4 1.3-5 6.8-8.6 3.4-2.2 4.2-3.3 4.2-5.7 0-1.7-.4-3.8-1-4.8-13.5-24.7-33.7-55.5-60.3-92-4.3-5.9-8.2-11.4-8.7-12.2-.6-1.1-1.3-1.2-2.3-.5-1.2.8-18.1 14.3-24.2 19.3-.5.4-7.2 5.7-14.9 11.7-7.6 6.1-15.1 12.1-16.7 13.5l-2.8 2.5 1.5 7c.9 3.8 2.4 10.8 3.5 15.5 1 4.7 2.3 11 2.9 14 1.7 9.6 7.2 25.7 9.5 28.2 1.2 1.2 3.4 3.3 4.8 4.5 3.6 3.1 4.5 7 2.1 9.3-2.2 2.2-1.4 2.2-43.4 2.2-17.3 0-33.3.2-35.5.3-2.2.2-9.4.6-16 .9-6.6.4-22.1 1.6-34.5 2.7-24 2.2-29.7 2.1-31.7-.7-3.1-4.3-.2-11.9 5.7-14.9 4-2.1 10.4-8.5 12.6-12.6 2.6-4.8 2.5-9.3-.6-56.4-1.2-19.5-1.9-29.9-2.5-41-.3-5-.7-11.5-1-14.5-.3-3-.7-9.1-1-13.5-1-15.4-3.5-58.1-4.1-68-.8-14.7-2.2-26.2-3.3-28.4-.9-1.5-8.6-7.5-18.3-14.2-.5-.3-1.2-2-1.8-3.7-.7-2.7-.5-3.7 1.4-5.9l2.2-2.6 29-.3c44.2-.4 79.8-2.2 111.9-5.6 16.8-1.9 24.9-1.7 27.4.6 3.6 3.3 2.4 7.3-3.6 11.8-4.1 3-5.5 6.1-8.3 18.4-4.3 18.7-5.9 33.1-5.9 52.9.1 17 .2 18 2 17.9.8-.1 7.6-4.5 15-9.9 29.8-21.8 50.1-36.6 53-38.5 1.2-.8 3.4-2.5 4.8-3.6 3.9-3.2 10.4-7.7 22.6-15.8 27.1-18 52.2-29 76.1-33.5 24.2-4.5 38.5-5.1 66.9-2.6z"/></svg>